<svg width="7" height="7" viewBox="0 0 7 7" fill="none" xmlns="http://www.w3.org/2000/svg">
<g clip-path="url(#clip0_705_137)">
<path d="M4.01025 4.66699C4.17134 4.66699 4.30176 4.79741 4.30176 4.9585V5.53662C4.30179 5.53825 4.30225 5.53987 4.30225 5.5415C4.30225 5.54291 4.30178 5.5445 4.30176 5.5459V6.125C4.30166 6.286 4.17128 6.41699 4.01025 6.41699C3.84932 6.41689 3.71885 6.28594 3.71875 6.125V5.83301H0.802246C0.641163 5.83301 0.510742 5.70259 0.510742 5.5415C0.510841 5.38051 0.641224 5.25 0.802246 5.25H3.71875V4.9585C3.71875 4.79747 3.84926 4.66709 4.01025 4.66699ZM6.05225 5.25C6.21318 5.2501 6.34365 5.38057 6.34375 5.5415C6.34375 5.70253 6.21324 5.83291 6.05225 5.83301H5.17725C5.01616 5.83301 4.88574 5.70259 4.88574 5.5415C4.88584 5.38051 5.01622 5.25 5.17725 5.25H6.05225ZM3.13525 2.625C3.29628 2.625 3.42666 2.75551 3.42676 2.9165V3.2085H6.34375C6.50476 3.20858 6.63525 3.33897 6.63525 3.5C6.63525 3.66103 6.50476 3.79142 6.34375 3.7915H3.42676V4.08301C3.42676 4.24409 3.29634 4.375 3.13525 4.375C2.97426 4.3749 2.84375 4.24403 2.84375 4.08301V2.9165C2.84385 2.75557 2.97432 2.6251 3.13525 2.625ZM1.96875 3.2085C2.12975 3.20859 2.26074 3.33898 2.26074 3.5C2.26074 3.66102 2.12975 3.79141 1.96875 3.7915H0.802246C0.641163 3.7915 0.510742 3.66108 0.510742 3.5C0.510742 3.33892 0.641163 3.2085 0.802246 3.2085H1.96875ZM4.01025 0.583496C4.17134 0.583496 4.30176 0.713917 4.30176 0.875V1.45361C4.30178 1.45518 4.30225 1.45693 4.30225 1.4585C4.30225 1.45996 4.30178 1.46143 4.30176 1.46289V2.0415C4.30176 2.20259 4.17134 2.3335 4.01025 2.3335C3.84926 2.3334 3.71875 2.20253 3.71875 2.0415V1.75H0.802246C0.641224 1.75 0.510841 1.61949 0.510742 1.4585C0.510742 1.29741 0.641163 1.16699 0.802246 1.16699H3.71875V0.875C3.71875 0.713978 3.84926 0.583595 4.01025 0.583496ZM6.05225 1.16699C6.21324 1.16709 6.34375 1.29747 6.34375 1.4585C6.34365 1.61943 6.21318 1.7499 6.05225 1.75H5.17725C5.01622 1.75 4.88584 1.61949 4.88574 1.4585C4.88574 1.29741 5.01616 1.16699 5.17725 1.16699H6.05225Z" fill="white"/>
</g>
<defs>
<clipPath id="clip0_705_137">
<rect width="7" height="7" fill="white"/>
</clipPath>
</defs>
</svg>
