<svg preserveAspectRatio="none" width="100%" height="100%" overflow="visible" style="display: block;" viewBox="0 0 12 12" fill="none" xmlns="http://www.w3.org/2000/svg">
<g id="DeepSeek">
<path id="Subtract" d="M8.56691 1.78315C8.65155 1.79639 8.67714 1.87268 8.70265 1.94819L8.70362 1.95112C8.74375 2.0773 8.76601 2.20613 8.8462 2.32124C8.96138 2.4827 9.12689 2.55763 9.29152 2.63179L9.29347 2.63276C9.6088 2.77643 9.81663 2.99904 9.87843 3.373C10.1721 3.06981 10.5043 2.94554 10.8931 2.96773C11.1585 2.98236 11.3615 2.85784 11.5357 2.66792L11.5396 2.66401C11.5585 2.6426 11.5778 2.62038 11.6001 2.60249C11.6693 2.54492 11.7215 2.43148 11.8403 2.49116C11.9541 2.54869 11.965 2.66175 11.9556 2.77144C11.8938 3.49032 11.6296 4.09057 10.9751 4.45503C10.7512 4.57794 10.5045 4.65462 10.2505 4.68159C10.159 4.69113 10.141 4.72312 10.1431 4.80464C10.1462 4.93878 10.1668 5.04313 10.1431 5.20894C9.83993 7.29558 9.06665 7.93949 8.55323 8.55952C8.75501 8.71746 8.53354 8.52221 9.54347 9.00288C9.66795 9.0628 9.69129 9.38836 9.34718 9.46284C9.12701 9.50931 8.84296 9.55229 8.54835 9.52437C8.16487 9.49056 7.93365 9.44592 7.71339 9.33394C6.84086 10.0882 6.06712 10.1839 5.37257 10.2246C4.22863 10.2937 3.22539 9.93407 2.35499 9.20112C1.51514 8.49333 0.968366 7.58846 0.779797 6.49507C0.600239 5.45877 0.747358 4.46455 1.37062 3.58882C1.88924 2.86123 2.59461 2.43531 3.47804 2.33491C3.92829 2.28136 4.38428 2.29739 4.8296 2.38276C4.90374 2.36695 4.9767 2.34475 5.04737 2.31733C5.52427 2.13143 5.89838 1.99181 6.30714 1.99019C6.71581 1.9886 6.7984 2.14774 6.67237 2.19429C6.55145 2.23917 6.02865 2.6154 6.49073 3.07319C6.60048 3.14442 6.70852 3.21965 6.813 3.29878C7.26567 3.64106 7.62934 4.07938 8.03077 4.47554C8.26342 4.71405 8.54012 4.90514 8.84523 5.03901C8.93536 5.07639 8.97321 5.05796 8.99855 4.97261C9.03869 4.83844 9.08552 4.70833 9.12355 4.57417C9.14411 4.50924 9.12644 4.46378 9.06202 4.4189C8.49824 4.03016 8.21434 3.48231 8.20167 2.79585C8.19591 2.49066 8.25268 2.18903 8.39894 1.91499C8.4359 1.84845 8.47292 1.76837 8.56691 1.78315ZM2.39308 4.82319C2.15495 4.78943 1.9123 4.79581 1.67628 4.84175C1.49703 4.87557 1.44413 4.94025 1.45362 5.12495C1.48901 5.87714 1.69649 6.61156 2.06105 7.27046C2.43712 7.9628 2.9709 8.46959 3.6089 8.85249C3.63744 8.86723 4.18318 9.13077 4.49757 8.93257C4.64071 8.8433 4.6041 8.72327 4.55128 8.64351C4.47424 8.52213 4.41871 8.42724 4.37648 8.28999C4.33635 8.15054 4.30359 7.93585 4.48683 7.92476C4.68342 7.91381 5.15871 8.17272 6.13722 8.95796L6.22023 9.01851C6.6437 9.30259 7.21629 9.29197 7.56886 9.2519C7.4443 9.17375 7.3145 9.06702 7.15089 8.92769C6.68935 8.52946 6.32625 8.04376 5.98878 7.53413C5.67135 7.05349 5.36325 6.56232 4.95655 6.15034C4.24349 5.42833 3.39241 4.97214 2.39308 4.82319ZM7.18214 5.20698C7.00426 5.13469 6.81185 5.10315 6.64503 5.20015C6.63027 5.21069 6.56804 5.27423 6.55519 5.30073C6.54676 5.31529 6.54145 5.33187 6.53956 5.34858C6.53772 5.36521 6.53951 5.3824 6.54444 5.39839C6.54936 5.41412 6.55717 5.42882 6.56788 5.44136C6.57882 5.45404 6.59284 5.46436 6.60792 5.47163C6.64399 5.49351 6.68494 5.50635 6.72706 5.50874C6.84961 5.50874 6.96209 5.52997 7.0503 5.60444C7.1578 5.69573 7.19484 5.79596 7.16163 5.9521C7.14347 6.0447 7.14055 6.13993 7.15382 6.23335C7.19235 6.42482 7.28449 6.48655 7.41261 6.59565C7.51907 6.67872 7.65168 6.7223 7.78663 6.71773C7.87643 6.71403 7.97048 6.67966 8.06398 6.64058C8.17198 6.59355 8.21282 6.51814 8.18116 6.42476C8.1305 6.27597 8.05501 6.14612 7.97218 6.01948C7.86812 5.85732 7.83418 5.79802 7.65089 5.58198C7.47136 5.40298 7.34691 5.27564 7.18214 5.20698ZM6.75148 5.73042C6.67075 5.73042 6.60611 5.79516 6.60597 5.8769C6.60548 5.89604 6.60877 5.91572 6.61573 5.93355C6.6227 5.95131 6.63369 5.96771 6.64698 5.9814C6.66023 5.99498 6.6764 6.00521 6.69386 6.01265C6.71147 6.02013 6.73039 6.0243 6.74952 6.02437C6.76859 6.0243 6.7876 6.02098 6.80519 6.01362C6.82289 6.00616 6.83958 5.9951 6.85304 5.9814C6.86647 5.96771 6.87715 5.95134 6.88429 5.93355C6.89143 5.91571 6.89433 5.89611 6.89405 5.8769C6.89436 5.84722 6.88533 5.81847 6.86866 5.7939C6.85195 5.76925 6.8281 5.74989 6.8003 5.73921C6.78572 5.73338 6.76946 5.73046 6.75148 5.73042Z" fill="var(--fill-0, white)" fill-opacity="0.7"/>
</g>
</svg>
