<svg preserveAspectRatio="none" width="100%" height="100%" overflow="visible" style="display: block;" viewBox="0 0 10.5 10.5" fill="none" xmlns="http://www.w3.org/2000/svg">
<g id="History" clip-path="url(#clip0_0_29)">
<path id="Union" d="M5.24951 0.437012C7.90723 0.437012 10.0618 2.59185 10.062 5.24951C10.062 7.90738 7.90738 10.062 5.24951 10.062C2.59185 10.0618 0.437012 7.90723 0.437012 5.24951C0.437259 5.00825 0.63325 4.81226 0.874512 4.81201C1.11598 4.81201 1.31176 5.0081 1.31201 5.24951C1.31201 7.42398 3.0751 9.18676 5.24951 9.18701C7.42413 9.18701 9.18701 7.42413 9.18701 5.24951C9.18676 3.0751 7.42398 1.31201 5.24951 1.31201C4.08457 1.31214 3.0382 1.81939 2.31689 2.62451H2.86377C3.10514 2.62461 3.30099 2.82068 3.30127 3.06201C3.30127 3.30358 3.10531 3.49941 2.86377 3.49951H1.27295C1.03132 3.49951 0.835449 3.30364 0.835449 3.06201V1.47119C0.83568 1.22976 1.03147 1.03369 1.27295 1.03369C1.51435 1.03379 1.71022 1.22982 1.71045 1.47119V1.99268C2.58947 1.038 3.84857 0.437142 5.24951 0.437012ZM5.25049 2.18799C5.4921 2.18801 5.68799 2.38388 5.68799 2.62549V5.0708L7.41455 6.79834C7.5852 6.96921 7.58534 7.24572 7.41455 7.4165C7.24373 7.58687 6.96712 7.58701 6.79639 7.4165L4.94092 5.56201C4.85899 5.48009 4.81312 5.36829 4.81299 5.25244V2.62549C4.81301 2.38408 5.00916 2.18831 5.25049 2.18799Z" fill="var(--fill-0, white)" fill-opacity="0.7"/>
</g>
<defs>
<clipPath id="clip0_0_29">
<rect width="10.5" height="10.5" fill="white"/>
</clipPath>
</defs>
</svg>
