<svg preserveAspectRatio="none" width="100%" height="100%" overflow="visible" style="display: block;" viewBox="0 0 10.5 10.5" fill="none" xmlns="http://www.w3.org/2000/svg">
<g id="image" clip-path="url(#clip0_0_39)">
<path id="Union" d="M8.24976 1.06128C9.32042 1.06128 10.1881 1.92913 10.1882 2.99976V7.49976C10.1882 8.5705 9.3205 9.43823 8.24976 9.43823H2.24976C1.17913 9.4381 0.311279 8.57042 0.311279 7.49976V2.99976C0.311411 1.92921 1.17921 1.06141 2.24976 1.06128H8.24976ZM4.6355 7.19312C4.48159 7.37267 4.21277 7.39841 4.02808 7.25073L3.15015 6.54761L1.47534 8.22339C1.66905 8.43073 1.94374 8.56121 2.24976 8.56128H8.24976C8.5259 8.56128 8.77672 8.4549 8.96558 8.28198L5.78589 5.84937L4.6355 7.19312ZM2.24976 1.93823C1.66384 1.93836 1.18836 2.41384 1.18823 2.99976V7.26929L2.80835 5.65015L2.87085 5.59741C3.02724 5.49065 3.23953 5.49587 3.39233 5.61792L4.24487 6.29956L5.39038 4.9646L5.4519 4.90503C5.60622 4.78326 5.82817 4.7776 5.98999 4.90112L9.31128 7.44019V2.99976C9.31115 2.41376 8.83579 1.93823 8.24976 1.93823H2.24976ZM2.88159 2.54565C3.4808 2.54588 3.96637 3.03238 3.96655 3.63159C3.96633 4.23077 3.48077 4.71633 2.88159 4.71655C2.28238 4.71637 1.79588 4.2308 1.79565 3.63159C1.79584 3.03235 2.28235 2.54584 2.88159 2.54565ZM2.88159 3.29565C2.69656 3.29584 2.54584 3.44656 2.54565 3.63159C2.54588 3.81658 2.69659 3.96637 2.88159 3.96655C3.06656 3.96633 3.21633 3.81656 3.21655 3.63159C3.21637 3.44659 3.06658 3.29588 2.88159 3.29565Z" fill="var(--fill-0, white)" fill-opacity="0.7"/>
</g>
<defs>
<clipPath id="clip0_0_39">
<rect width="10.5" height="10.5" fill="white"/>
</clipPath>
</defs>
</svg>
