<svg preserveAspectRatio="none" width="100%" height="100%" overflow="visible" style="display: block;" viewBox="0 0 10.5 10.5" fill="none" xmlns="http://www.w3.org/2000/svg">
<g id="New" clip-path="url(#clip0_0_58)">
<path id="Union" d="M8.24976 1.06128C9.32042 1.06128 10.1881 1.92913 10.1882 2.99976V6.74976C10.1882 7.8205 9.3205 8.68823 8.24976 8.68823H6.1062L3.30151 10.1394C3.16557 10.2096 3.00254 10.2043 2.87183 10.1248C2.74127 10.0451 2.66187 9.90272 2.66187 9.74976V8.68823H2.24976C1.17913 8.6881 0.311279 7.82042 0.311279 6.74976V2.99976C0.311411 1.92921 1.17921 1.06141 2.24976 1.06128H8.24976ZM2.24976 1.93823C1.66384 1.93836 1.18836 2.41384 1.18823 2.99976V6.74976C1.18823 7.33579 1.66376 7.81115 2.24976 7.81128H3.53882V9.02808L5.79858 7.86011L5.89331 7.81128H8.24976C8.83587 7.81128 9.31128 7.33587 9.31128 6.74976V2.99976C9.31115 2.41376 8.83579 1.93823 8.24976 1.93823H2.24976ZM5.32104 2.64722C5.56328 2.64753 5.75971 2.84446 5.75952 3.08667L5.75757 4.43628H7.10229C7.34453 4.43628 7.54064 4.63255 7.54077 4.87476C7.54077 5.11707 7.34461 5.31323 7.10229 5.31323H5.75659L5.75464 6.66479C5.75412 6.90694 5.55737 7.10261 5.31519 7.10229C5.07336 7.1014 4.87737 6.9048 4.87769 6.66284L4.87964 5.31323H3.52417C3.28207 5.31298 3.08569 5.11691 3.08569 4.87476C3.08582 4.63271 3.28216 4.43654 3.52417 4.43628H4.88062L4.88257 3.08472C4.88323 2.84304 5.07942 2.64746 5.32104 2.64722Z" fill="var(--fill-0, white)" fill-opacity="0.7"/>
</g>
<defs>
<clipPath id="clip0_0_58">
<rect width="10.5" height="10.5" fill="white"/>
</clipPath>
</defs>
</svg>
