<svg preserveAspectRatio="none" width="100%" height="100%" overflow="visible" style="display: block;" viewBox="0 0 18 18" fill="none" xmlns="http://www.w3.org/2000/svg">
<g id="&#231;&#161;&#174;&#232;&#174;&#164;" clip-path="url(#clip0_0_48)">
<path id="Subtract" d="M9 0C13.9706 0 18 4.02944 18 9C18 13.9706 13.9706 18 9 18C4.02944 18 0 13.9706 0 9C0 4.02944 4.02944 0 9 0ZM10.1104 6.30957C9.89079 6.0902 9.53507 6.09032 9.31543 6.30957C9.09578 6.52924 9.09577 6.88581 9.31543 7.10547L10.7363 8.52637H5.91113C5.60064 8.52656 5.34863 8.77833 5.34863 9.08887C5.34877 9.39929 5.60072 9.65117 5.91113 9.65137H10.7461L9.31543 11.082C9.09578 11.3017 9.09583 11.6583 9.31543 11.8779C9.53508 12.0972 9.89078 12.0974 10.1104 11.8779L12.4971 9.49121C12.7163 9.27162 12.7163 8.91586 12.4971 8.69629L10.1104 6.30957Z" fill="var(--fill-0, white)" fill-opacity="0.1"/>
</g>
<defs>
<clipPath id="clip0_0_48">
<rect width="18" height="18" fill="white"/>
</clipPath>
</defs>
</svg>
