<svg preserveAspectRatio="none" width="100%" height="100%" overflow="visible" style="display: block;" viewBox="0 0 12 12" fill="none" xmlns="http://www.w3.org/2000/svg">
<g clip-path="url(#clip0_clipboard_chrome)">
<path d="M1.4491 2.08981C4.2381 -1.15569 9.4101 -0.515187 11.3431 3.27731H6.6966C5.8596 3.27731 5.3191 3.25831 4.7336 3.56631C4.0451 3.92881 3.5261 4.60031 3.3451 5.38881L1.4491 2.09031V2.08981Z" fill="#EA4335"/>
<path d="M4.00397 5.99988C4.00397 7.09988 4.89847 7.99488 5.99797 7.99488C7.09797 7.99488 7.99197 7.09988 7.99197 5.99988C7.99197 4.89988 7.09747 4.00488 5.99797 4.00488C4.89797 4.00488 4.00397 4.89988 4.00397 5.99988Z" fill="#4285F4"/>
<path d="M6.77199 8.61161C5.65249 8.94411 4.34299 8.57511 3.62549 7.33661C3.07749 6.39161 1.63049 3.87061 0.97299 2.72461C-1.33051 6.25461 0.65499 11.0661 4.83649 11.8871L6.77149 8.61161H6.77199Z" fill="#34A853"/>
<path d="M7.8499 4.00538C8.30069 4.42621 8.59584 4.98718 8.68735 5.59704C8.77885 6.2069 8.66133 6.82979 8.3539 7.36438C7.8784 8.18438 6.3599 10.7474 5.6239 11.9884C9.9324 12.2539 13.0739 8.03138 11.6549 4.00488H7.8499V4.00538Z" fill="#FBBC05"/>
</g>
<defs><clipPath id="clip0_clipboard_chrome"><rect width="12" height="12" fill="white"/></clipPath></defs>
</svg>
