<svg preserveAspectRatio="none" width="100%" height="100%" overflow="visible" style="display: block;" viewBox="0 0 24 24" fill="none" xmlns="http://www.w3.org/2000/svg">
<g id="Frame">
<path id="Vector" fill-rule="evenodd" clip-rule="evenodd" d="M12.0001 22.5C13.6104 22.5 16.3638 20.4 16.3638 12C16.3638 3.6 13.6104 1.5 12.0001 1.5C10.3899 1.5 7.63645 3.74151 7.63645 12C7.63645 20.2585 10.3899 22.5 12.0001 22.5Z" stroke="var(--stroke-0, white)" stroke-width="2" stroke-linecap="round" stroke-linejoin="round"/>
<path id="Vector_2" fill-rule="evenodd" clip-rule="evenodd" d="M2.55258 17.5C3.35773 18.9062 6.62395 20.2105 14.182 15.8105C21.74 11.4105 22.2529 7.9062 21.4477 6.50005C20.6426 5.0939 17.249 3.86364 9.81835 8.18955C2.3876 12.5154 1.74745 16.0939 2.55258 17.5Z" stroke="var(--stroke-0, white)" stroke-width="2" stroke-linecap="round" stroke-linejoin="round"/>
<path id="Vector_3" fill-rule="evenodd" clip-rule="evenodd" d="M2.55253 6.50005C1.7474 7.9062 2.26023 11.4105 9.8183 15.8105C17.3764 20.2105 20.6425 18.9062 21.4477 17.5C22.2528 16.0939 21.6127 12.5154 14.1819 8.18955C6.7512 3.86364 3.35769 5.0939 2.55253 6.50005Z" stroke="var(--stroke-0, white)" stroke-width="2" stroke-linecap="round" stroke-linejoin="round"/>
</g>
</svg>
