<svg preserveAspectRatio="none" width="100%" height="100%" overflow="visible" style="display: block;" viewBox="0 0 24 24" fill="none" xmlns="http://www.w3.org/2000/svg">
<g id="Frame">
<path id="Vector" d="M12 22C17.5229 22 22 18.3063 22 13.75C22 10.529 19.7626 7.8507 16.5 6.49205L14.75 7.24995L15 9.99995L11.75 8.99995L8.5 9.99995V7.24995L7 6.49205C4.01099 7.9185 2 10.6963 2 13.75C2 18.3063 6.47715 22 12 22Z" fill="var(--fill-0, white)" stroke="var(--stroke-0, white)" stroke-width="2" stroke-linecap="round" stroke-linejoin="round"/>
<path id="Vector_2" d="M11.75 2L13.6544 4.55836L18 4.95492L14.8314 7.24165L15.75 10.5L11.75 9L7.75 10.5L8.66855 7.24165L5.5 4.95492L9.84555 4.55836L11.75 2Z" stroke="var(--stroke-0, white)" stroke-width="2" stroke-linecap="round" stroke-linejoin="round"/>
</g>
</svg>
