<svg preserveAspectRatio="none" width="100%" height="100%" overflow="visible" style="display: block;" viewBox="0 0 31.7809 30.2222" fill="none" xmlns="http://www.w3.org/2000/svg">
<g id="Group" clip-path="url(#clip0_0_4)">
<circle id="Ellipse" cx="16.0001" cy="15.1112" r="15.1111" fill="var(--fill-0, #FA3333)"/>
<path id="Exclude" fill-rule="evenodd" clip-rule="evenodd" d="M10.1752 21.1531C11.3239 22.436 12.9021 23.111 14.7671 23.111C16.6274 23.111 18.1497 22.4697 19.2917 21.2039C19.3848 21.1001 19.4741 20.9943 19.559 20.8863C19.7512 21.4782 20.2408 22.2071 21.4502 22.6592C22.1345 22.9107 22.8984 23.0384 23.7205 23.0384C25.6197 23.0384 27.2687 22.5763 28.6204 21.6656C30.2499 20.5715 31.1112 19.0042 31.1112 17.1332C31.1112 15.7304 30.5958 14.5165 29.6077 13.5662C30.0991 12.8683 30.3536 12.0843 30.3536 11.2513C30.3536 9.92077 29.732 8.80948 28.5659 8.04406C27.6447 7.42422 26.5412 7.11018 25.2863 7.11018C22.9158 7.11018 21.1737 8.00687 20.1577 9.72584V7.04652H18.6262C16.7726 7.04652 15.2365 7.28222 14.058 7.74756C12.2405 8.47077 10.8057 9.6797 9.79176 11.3439C8.89291 12.8326 8.43694 14.5054 8.43694 16.3152C8.43694 17.3729 8.6189 18.3479 8.97965 19.2317L8.70316 19.2213C8.50066 19.2134 8.33676 19.2034 8.20506 19.1927V6.22209L0.888997 9.52161V13.2224L2.97025 12.5207V19.2002C2.85909 19.2066 2.72138 19.2109 2.55216 19.2109H1.02069V22.8381H10.1752V21.1531ZM24.1978 18.6182C23.2703 17.9765 22.7138 17.7379 22.1445 17.7379C21.6224 17.7379 21.159 17.8338 20.7696 18.0116C20.8131 17.6982 20.8347 17.3749 20.8347 17.0423C20.8347 15.6159 20.3685 14.379 19.4459 13.3636C18.5378 12.3711 17.3225 11.8013 15.9089 11.6994C16.5437 11.1961 17.5544 10.837 18.8419 10.6585L19.7596 10.5316C19.6335 10.8392 19.5259 11.1664 19.437 11.5137L19.1333 12.6958L21.7045 13.9087V16.8817L23.3241 16.7894C23.9844 16.7522 24.2106 16.7468 24.2863 16.7468C24.9179 16.7468 25.3717 16.8781 25.7265 17.1696C26.0199 17.4032 26.1392 17.6664 26.1392 18.0788C26.1392 18.3485 26.0695 18.5309 25.8953 18.7119C25.7785 18.8342 25.6213 18.9472 25.2662 18.9472C24.862 18.9472 24.5225 18.8428 24.1978 18.6182ZM23.5757 11.8469C23.6221 11.8108 23.8154 11.6921 24.3468 11.6921C24.7096 11.6921 24.984 11.7568 25.1798 11.8859C25.2147 11.9095 25.2361 11.9277 25.2475 11.9374C25.2532 11.9423 25.2565 11.945 25.2576 11.9453C25.2587 11.951 25.2605 11.9646 25.2605 11.9875C25.2605 11.9932 25.116 12.6002 22.8036 13.2619L22.6684 13.3005L22.9041 12.8463C23.3077 12.0687 23.5481 11.8684 23.5757 11.8469ZM13.9251 16.0623C13.9046 16.2329 13.8943 16.4057 13.8943 16.5788C13.8943 17.4161 14.0132 18.1107 14.2377 18.5868C14.4536 19.0396 14.6522 19.12 14.9896 19.12C15.2027 19.12 15.2516 19.0746 15.3365 18.9451C15.4909 18.7084 15.5698 18.3704 15.5698 17.9426C15.5698 17.2762 15.4502 16.739 15.2148 16.3456C15.0197 16.0248 14.8314 15.9196 14.4441 15.9196C14.4352 15.9196 14.2752 15.9217 13.9251 16.0623Z" fill="var(--fill-0, #FEFEFE)"/>
<path id="Exclude_2" fill-rule="evenodd" clip-rule="evenodd" d="M9.27513 4.50008L6.33739 5.84053L5.66991 6.14524L1.49113 8.05208L1.23617 8.16835L0 8.73261V10.1164V11.6229V14.584L2.04487 13.8864V17.9899H0.129391V20.1232V21.5956V23.7289H2.21635H9.12348H11.2104V23.1611C12.2268 23.715 13.3944 24.0002 14.679 24.0002C16.4397 24.0002 17.9899 23.4569 19.216 22.4194C19.6466 22.8656 20.2073 23.2293 20.8769 23.4828C21.6755 23.7797 22.5461 23.928 23.4758 23.928C25.5517 23.928 27.3666 23.4082 28.8703 22.3831C30.7736 21.0903 31.7809 19.2254 31.7809 16.9911C31.7809 15.5852 31.3621 14.3394 30.5541 13.3051C30.9301 12.5093 31.0365 11.7491 31.0365 11.144C31.0365 9.47075 30.2445 8.0215 28.8056 7.0615C27.7283 6.33084 26.4525 5.9607 25.0143 5.9607C23.4483 5.9607 22.1033 6.32621 21.0188 7.02737V5.89741H18.9318H18.4706C16.519 5.89741 14.8817 6.15626 13.6045 6.66684C11.8122 7.38826 10.3597 8.54133 9.27513 10.1001V7.78861V4.50008ZM25.0143 8.09391C26.0376 8.09391 26.9288 8.34707 27.6585 8.84342C28.5152 9.41267 28.9496 10.1867 28.9496 11.1439C28.9496 12.0662 28.535 12.8825 27.719 13.578C29.03 14.4011 29.694 15.5464 29.694 16.991C29.694 18.4982 29.0272 19.7152 27.7124 20.608C26.5576 21.3952 25.1319 21.7945 23.4759 21.7945C22.79 21.7945 22.1604 21.6896 21.6015 21.482C20.5378 21.0795 20.3149 20.4495 20.3149 19.9919C20.3149 19.1446 20.9027 18.6589 21.9274 18.6589C22.158 18.6589 22.4909 18.7424 23.3549 19.3472C23.8491 19.6928 24.3851 19.861 24.9945 19.861C25.5597 19.861 26.007 19.6783 26.3632 19.301C26.7215 18.9245 26.8957 18.4765 26.8957 17.9311C26.8957 17.1951 26.6349 16.6265 26.0933 16.1896C25.567 15.7526 24.8929 15.5403 24.0317 15.5403C23.879 15.5403 23.5416 15.5552 23.0282 15.5844L22.5382 15.6125V14.2617L22.8592 14.1686C24.9646 13.5592 26.0321 12.7876 26.0321 11.8756C26.0321 11.4525 25.8582 11.1375 25.4856 10.8854C25.1135 10.6365 24.6571 10.5152 24.0912 10.5152C23.4808 10.5152 23.0119 10.6418 22.6954 10.8921C22.4985 11.0468 22.1747 11.4052 21.7496 12.234L21.5451 12.6326L21.1173 12.4285L20.5121 12.1387L20.1969 11.9887L20.2769 11.6729C20.8783 9.29818 22.4721 8.09391 25.0143 8.09391ZM16.1081 19.381C15.8201 19.8258 15.4351 20.0328 14.8973 20.0328C14.1161 20.0328 13.5819 19.6712 13.217 18.8954C12.9259 18.2714 12.7773 17.445 12.7773 16.4399C12.7773 16.0072 12.8285 15.5887 12.9231 15.1908C13.6493 14.8061 14.105 14.7179 14.3613 14.7179C15.1022 14.7179 15.6267 15.0162 16.0114 15.6562C16.3422 16.2155 16.5106 16.9362 16.5106 17.7956C16.5106 18.4335 16.3753 18.9668 16.1081 19.381ZM18.9318 8.03076V9.44338L18.5408 9.49814C17.0083 9.7129 15.8358 10.1623 15.056 10.834C14.5075 11.3076 14.0372 11.9984 13.6494 12.8901C14.2243 12.7245 14.792 12.6398 15.344 12.6398C16.6476 12.6398 17.7123 13.0864 18.5092 13.9678C19.2313 14.7717 19.5968 15.7584 19.5968 16.9008C19.5968 18.2409 19.1784 19.3911 18.3523 20.3198C17.4368 21.3463 16.2014 21.8669 14.6789 21.8669C12.9979 21.8669 11.6615 21.2347 10.7068 19.987C9.90815 18.9381 9.50293 17.6567 9.50293 16.178C9.50293 14.5776 9.89876 13.1024 10.6814 11.7918C11.5544 10.3415 12.7934 9.28587 14.3645 8.6537C15.3982 8.24054 16.7795 8.03076 18.4706 8.03076H18.9318ZM7.18813 19.2688V7.78857L6.52065 8.09329L2.34152 10.0001L2.08691 10.1164V11.6229L2.70987 11.4106C3.68622 11.0771 4.00378 10.9985 4.10326 10.9808C4.11578 11.0145 4.13178 11.0832 4.13178 11.2069V19.1692C4.13178 19.5802 4.04796 19.8721 3.90222 19.9703C3.85283 20.0019 3.59196 20.1232 2.67718 20.1232H2.21631V21.5955H9.12344V20.1495L8.6817 20.1328C7.67474 20.094 7.43231 19.9916 7.39404 19.9717C7.26674 19.9031 7.18813 19.6396 7.18813 19.2688Z" fill="var(--fill-0, #FA3333)"/>
</g>
<defs>
<clipPath id="clip0_0_4">
<rect width="31.7809" height="30.2222" fill="white"/>
</clipPath>
</defs>
</svg>

