<svg preserveAspectRatio="none" width="100%" height="100%" overflow="visible" style="display: block;" viewBox="0 0 32 32" fill="none" xmlns="http://www.w3.org/2000/svg">
<g id="&#229;&#136;&#135;&#229;&#155;&#190;&#230;&#150;&#135;&#228;&#187;&#182;">
<path id="Vector" d="M16 2.66667C8.63335 2.66667 2.66668 8.63333 2.66668 16C2.66517 18.799 3.5451 21.5275 5.18164 23.7982C6.81817 26.069 9.12821 27.7668 11.784 28.6507C12.4507 28.7667 12.7 28.3667 12.7 28.016C12.7 27.7 12.6827 26.6507 12.6827 25.5333C9.33335 26.1507 8.46668 24.7173 8.20001 23.9667C8.04935 23.5827 7.40002 22.4 6.83335 22.0827C6.36668 21.8333 5.70001 21.216 6.81602 21.2C7.86668 21.1827 8.61602 22.1667 8.86668 22.5667C10.0667 24.5827 11.984 24.016 12.7493 23.6667C12.8667 22.8 13.216 22.2173 13.6 21.884C10.6333 21.5507 7.53335 20.4 7.53335 15.3C7.53335 13.8493 8.04935 12.6507 8.90001 11.716C8.76668 11.3827 8.30002 10.016 9.03335 8.18267C9.03335 8.18267 10.1493 7.83333 12.7 9.55067C13.7854 9.24941 14.9069 9.09779 16.0333 9.1C17.1667 9.1 18.3 9.24933 19.3667 9.54933C21.916 7.816 23.0333 8.184 23.0333 8.184C23.7667 10.0173 23.3 11.384 23.1667 11.7173C24.016 12.6507 24.5333 13.8333 24.5333 15.3C24.5333 20.4173 21.4173 21.5507 18.4507 21.884C18.9333 22.3 19.3507 23.1 19.3507 24.3507C19.3507 26.1333 19.3333 27.5667 19.3333 28.0173C19.3333 28.3667 19.584 28.7827 20.2507 28.6493C22.8974 27.7557 25.1972 26.0547 26.8266 23.7855C28.4559 21.5164 29.3326 18.7935 29.3333 16C29.3333 8.63333 23.3667 2.66667 16 2.66667Z" fill="var(--fill-0, white)"/>
</g>
</svg>
