<svg width="144" height="84" viewBox="0 0 144 84" fill="none" xmlns="http://www.w3.org/2000/svg">
<path d="M50.8065 38.5758C51.5054 39.7167 52.9965 40.075 54.1376 39.3766C58.1317 36.9312 61.0974 32.8381 61.0976 27.9713C61.0975 25.1136 60.0016 22.7098 57.9159 21.0875C55.9166 19.5326 53.2703 18.8971 50.4667 18.8971C45.0706 18.8972 40.1708 20.4665 35.8602 22.9977L41.1923 13.444C41.844 12.2755 41.4251 10.8002 40.2567 10.1481C39.0882 9.49613 37.612 9.9142 36.9599 11.0827L24.7196 33.0163C24.7111 33.0315 24.7043 33.0477 24.6962 33.0631C24.677 33.0992 24.6597 33.1358 24.6425 33.1725C24.6258 33.2082 24.6095 33.2438 24.5946 33.2799C24.5789 33.3184 24.5644 33.3571 24.5507 33.3961C24.5379 33.4325 24.5255 33.4688 24.5145 33.5055C24.5037 33.5421 24.4944 33.579 24.4852 33.6159C24.4743 33.6601 24.4643 33.7042 24.456 33.7487C24.4502 33.7795 24.4459 33.8105 24.4413 33.8414C24.4344 33.8884 24.4279 33.9351 24.4237 33.9821C24.4214 34.0087 24.4203 34.0354 24.4188 34.0622C24.416 34.1137 24.4135 34.165 24.414 34.2164C24.4142 34.2399 24.416 34.2633 24.4169 34.2868C24.419 34.341 24.421 34.3951 24.4267 34.4489C24.4295 34.4757 24.4337 34.5023 24.4374 34.5289C24.444 34.5767 24.4514 34.6243 24.4608 34.6715C24.4674 34.7043 24.4754 34.7367 24.4833 34.7692C24.4937 34.8117 24.5039 34.8542 24.5165 34.8961C24.5268 34.9304 24.5398 34.9638 24.5517 34.9977C24.5648 35.0352 24.5767 35.0731 24.5917 35.11C24.6061 35.1456 24.6224 35.1805 24.6386 35.2155C24.656 35.2533 24.6738 35.2909 24.6933 35.3278C24.7087 35.3571 24.7253 35.3859 24.7421 35.4147C24.7647 35.4537 24.7885 35.4921 24.8134 35.5299C24.8324 35.5587 24.8526 35.5868 24.8729 35.6149C24.8991 35.6512 24.9257 35.6873 24.954 35.7223C24.9732 35.7459 24.9934 35.7687 25.0136 35.7916C25.0491 35.8323 25.0854 35.8724 25.1239 35.9108C25.1404 35.9272 25.1577 35.9426 25.1747 35.9586C25.215 35.9966 25.2564 36.0336 25.2997 36.069C25.309 36.0766 25.3176 36.0849 25.327 36.0924C25.3422 36.1044 25.3586 36.115 25.3739 36.1266C25.4134 36.1564 25.4533 36.1859 25.495 36.2135C25.5239 36.2328 25.5535 36.2504 25.5829 36.2682C25.6071 36.2828 25.6303 36.2992 25.6552 36.3131C25.671 36.322 25.688 36.3291 25.704 36.3375C25.7347 36.3538 25.7656 36.3696 25.7968 36.3844C25.8414 36.4057 25.8862 36.4257 25.9315 36.444C25.9574 36.4544 25.9836 36.4638 26.0097 36.4733C26.0577 36.4908 26.1056 36.5078 26.1542 36.5221C26.1865 36.5316 26.2192 36.5394 26.2519 36.5475C26.2925 36.5576 26.3331 36.5669 26.3739 36.5748C26.4155 36.5829 26.4571 36.5895 26.4989 36.5954C26.5351 36.6004 26.5711 36.6056 26.6073 36.609C26.6428 36.6124 26.6783 36.6141 26.7138 36.6159C26.7597 36.6181 26.8056 36.6201 26.8515 36.6198C26.8824 36.6196 26.9133 36.6173 26.9442 36.6159C26.9873 36.6139 27.0303 36.6123 27.0731 36.6081C27.1166 36.6038 27.1598 36.5971 27.203 36.5905C27.2341 36.5857 27.265 36.5808 27.2958 36.5748C27.342 36.5659 27.3878 36.5552 27.4335 36.5436C27.4639 36.5359 27.4942 36.5281 27.5243 36.5192C27.5721 36.5051 27.619 36.4884 27.6659 36.4713C27.689 36.4629 27.7124 36.4551 27.7352 36.4459C27.7835 36.4267 27.8307 36.4049 27.8778 36.3825C27.9033 36.3703 27.9289 36.3584 27.954 36.3454C27.9953 36.3239 28.0359 36.301 28.0761 36.277C28.1039 36.2604 28.1318 36.2439 28.1591 36.2262C28.1933 36.2039 28.2265 36.1801 28.2597 36.1559C28.2931 36.1316 28.326 36.1068 28.3583 36.0807C28.3869 36.0575 28.4146 36.0331 28.4423 36.0084C28.4738 35.9805 28.5049 35.9522 28.5351 35.9225C28.5607 35.8972 28.5856 35.871 28.6102 35.8444C28.6431 35.809 28.675 35.7727 28.706 35.735C28.714 35.7252 28.7234 35.7166 28.7313 35.7067C34.2536 28.7702 41.75 23.7431 50.4667 23.7428C52.6153 23.7428 54.0741 24.2392 54.9403 24.9127C55.72 25.5192 56.2508 26.4425 56.2509 27.9713C56.2507 30.7455 54.5466 33.4442 51.6073 35.2438C50.4663 35.9426 50.108 37.4346 50.8065 38.5758ZM119.657 72.4909C123.375 72.4907 126.14 70.2634 127.717 66.7194C129.231 63.3142 129.763 58.5398 129.362 52.6403C129.196 50.1384 128.83 47.776 128.286 45.5651C132.081 45.9159 135.911 46.7172 139.192 47.9313C140.447 48.3957 141.841 47.7545 142.306 46.4997C142.77 45.2448 142.13 43.851 140.875 43.3864C136.531 41.7788 131.471 40.8433 126.658 40.5885C125.297 37.3329 123.475 34.5264 121.275 32.2233C123.955 30.6541 126.177 28.9831 127.846 27.1745C130.15 24.6763 131.484 21.8122 131.346 18.6061L131.347 18.6051C131.253 16.2787 130.389 14.2068 128.713 12.7164C127.069 11.2552 124.882 10.5641 122.502 10.4791L122.496 10.4782C117.358 10.3072 113.469 12.7448 110.977 15.8375C110.138 16.8795 110.302 18.4052 111.344 19.2448C112.386 20.0842 113.911 19.9195 114.751 18.8776C116.465 16.7491 118.981 15.2124 122.329 15.3219C123.911 15.3784 124.908 15.8191 125.493 16.3385C126.045 16.8291 126.455 17.5876 126.504 18.7985V18.8082C126.574 20.4086 125.959 22.0723 124.284 23.8883C122.574 25.7425 119.856 27.638 116.025 29.5534C116.009 29.5613 115.995 29.5715 115.979 29.5797C115.937 29.602 115.895 29.6252 115.854 29.65C115.827 29.6667 115.8 29.6842 115.773 29.7018C115.733 29.7286 115.693 29.7564 115.654 29.7858C115.625 29.8075 115.597 29.8294 115.569 29.8522C115.539 29.8773 115.51 29.9036 115.48 29.9303C115.448 29.9596 115.417 29.9894 115.387 30.0202C115.362 30.0447 115.339 30.0696 115.315 30.0954C115.284 30.1304 115.253 30.1661 115.224 30.2028C115.213 30.2164 115.2 30.2289 115.189 30.2428C115.179 30.2556 115.172 30.2699 115.162 30.2829C115.134 30.3206 115.107 30.3589 115.082 30.3981C115.062 30.429 115.043 30.4604 115.024 30.4918C115.007 30.5218 114.99 30.552 114.974 30.5827C114.951 30.6257 114.928 30.6686 114.908 30.7125C114.896 30.7383 114.886 30.7645 114.875 30.7907C114.856 30.836 114.838 30.8813 114.822 30.9274C114.811 30.9584 114.801 30.9897 114.792 31.0211C114.779 31.0624 114.767 31.1035 114.757 31.1452C114.747 31.1829 114.741 31.2212 114.733 31.2594C114.725 31.3024 114.717 31.3451 114.711 31.3883C114.706 31.4256 114.703 31.4631 114.699 31.5006C114.696 31.5365 114.692 31.5722 114.69 31.6081C114.688 31.6532 114.688 31.6984 114.688 31.7438C114.689 31.7718 114.689 31.7998 114.69 31.8278C114.693 31.8831 114.698 31.9384 114.704 31.9938C114.706 32.013 114.708 32.0322 114.711 32.0514C114.718 32.1069 114.729 32.1621 114.74 32.2174C114.745 32.2422 114.751 32.267 114.757 32.2916C114.768 32.3394 114.782 32.3868 114.797 32.4342C114.806 32.4635 114.814 32.4931 114.824 32.5221C114.838 32.5628 114.854 32.603 114.871 32.6432C114.887 32.6832 114.904 32.7232 114.923 32.7623C114.929 32.7763 114.935 32.7905 114.942 32.8043C114.95 32.8189 114.958 32.833 114.966 32.8473C114.989 32.8923 115.014 32.9365 115.041 32.9801C115.058 33.0084 115.076 33.0358 115.095 33.0631C115.118 33.0981 115.142 33.1328 115.167 33.1666C115.194 33.2031 115.222 33.2385 115.251 33.2731C115.269 33.2943 115.287 33.3149 115.306 33.3356C115.342 33.3763 115.379 33.4159 115.418 33.4538C115.436 33.4715 115.455 33.4892 115.474 33.5065C115.515 33.5449 115.559 33.5807 115.603 33.6159C115.614 33.6239 115.622 33.6334 115.633 33.6413C117.858 35.353 119.807 37.6752 121.317 40.5934C117.561 40.8162 114.051 41.5267 111.417 42.859V42.86C109.16 43.9902 107.387 45.4346 106.236 47.3756C105.083 49.3205 104.702 51.5162 104.783 53.8786V53.8844C104.946 58.2868 106.832 62.8226 109.428 66.2575C111.951 69.5966 115.622 72.4908 119.657 72.4909ZM101.755 70.6452C102.939 71.2678 104.405 70.8122 105.027 69.6276C105.65 68.4431 105.194 66.9787 104.01 66.3561C101.51 65.0425 98.6824 62.7101 96.1015 59.9039C99.6098 53.4258 102.829 43.0613 104.091 30.1276C104.868 30.0708 105.624 30.0387 106.355 30.0387C107.694 30.0386 108.778 28.954 108.778 27.6159C108.778 26.2778 107.693 25.1931 106.355 25.193C102.228 25.193 97.5152 25.969 92.8905 27.4743C94.3353 23.5106 96.0958 19.1365 98.1376 14.4606C98.6727 13.2344 98.1127 11.8067 96.8866 11.2711C95.6603 10.7358 94.2317 11.2958 93.6962 12.5221C90.9141 18.8934 88.6213 24.7662 86.9198 29.8688C81.3379 32.5689 76.169 36.4996 73.0106 41.7145V41.7155C70.8006 45.3484 69.5154 49.6578 69.8349 54.4508C70.3815 62.7195 75.8858 69.3282 82.4423 69.5182H82.4667C84.6907 69.5601 86.7212 69.1376 88.5868 68.1823C90.4331 67.2368 91.993 65.8332 93.3837 64.0875H93.3847C93.3854 64.0866 93.3859 64.0855 93.3866 64.0846C96.0399 66.8231 98.9605 69.1764 101.755 70.6452ZM13.3827 69.9342C14.7151 70.0572 15.8953 69.0762 16.0185 67.7438C16.8092 59.189 17.1629 38.5415 16.3056 25.8961C16.304 25.8725 16.299 25.8493 16.2968 25.8258C17.953 22.6973 19.6093 19.5686 21.2655 16.4401C21.8915 15.2574 21.4403 13.7908 20.2577 13.1647C19.0751 12.5387 17.6085 12.99 16.9823 14.1725C12.1005 23.3938 7.21866 32.6153 2.33681 41.8366C1.71067 43.0193 2.16191 44.4858 3.34462 45.112C4.52732 45.738 5.99389 45.2868 6.62002 44.1041C8.35711 40.823 10.0939 37.5416 11.831 34.2604C12.1559 46.1322 11.8084 60.6329 11.1923 67.2985C11.0693 68.6309 12.0503 69.811 13.3827 69.9342ZM92.7577 55.7877C91.5103 54.0382 90.4586 52.2678 89.6923 50.5885C88.7707 48.5689 88.3251 46.8256 88.3251 45.4801C88.3251 42.9521 89.1546 38.8592 90.8573 33.4372C90.8613 33.4245 90.8651 33.4117 90.869 33.3991C93.5928 32.2437 96.4176 31.3851 99.1483 30.8248C97.9756 41.6496 95.4121 50.1924 92.7577 55.7877ZM36.7811 73.1276C39.5734 73.0818 41.9333 72.0497 43.4052 69.6149C44.7128 67.4516 45.1073 64.4918 45.1073 61.0827C45.1073 57.3734 44.9735 53.5182 44.7645 49.8952C46.5319 49.6998 48.3421 49.6073 50.1376 49.6383C53.5427 49.7038 55.6559 50.4407 56.869 51.3834C57.9803 52.2472 58.5858 53.4741 58.5858 55.2809C58.5858 58.9797 56.8789 62.4136 54.2929 64.9381C53.3355 65.8729 53.3173 67.4073 54.2519 68.3649C55.1867 69.3225 56.721 69.3407 57.6786 68.4059C61.0357 65.1287 63.4325 60.4968 63.4325 55.2809C63.4324 52.206 62.3042 49.4705 59.8427 47.5573C57.4828 45.7234 54.1829 44.8686 50.2304 44.7926H50.2265C48.2887 44.7589 46.3393 44.8534 44.4315 45.0563C44.1411 41.4523 43.7919 38.3252 43.4511 36.1559C43.2433 34.834 42.0025 33.9306 40.6806 34.1383C39.3589 34.3463 38.4554 35.5861 38.663 36.9079C38.9953 39.0226 39.3439 42.168 39.6308 45.8141C38.9959 45.9481 38.3714 46.0917 37.7606 46.2487C33.98 47.2203 30.523 48.6655 28.1269 50.5094C24.7125 53.1011 23.134 56.1579 23.1317 59.7106C23.1297 63.1241 24.9549 66.4712 27.3622 68.8834C29.7773 71.3034 33.1687 73.1737 36.7724 73.1276H36.7811ZM82.579 64.6735C79.3724 64.5781 75.1151 60.8575 74.6708 54.1295V54.1286C74.4399 50.6646 75.2852 47.5215 76.8339 44.7731L77.1532 44.2291L77.1552 44.2243C78.9604 41.2437 81.6788 38.6644 84.9188 36.5465C83.999 40.0863 83.4794 43.1304 83.4794 45.4801C83.4794 47.7832 84.2076 50.2433 85.2831 52.6002C86.3709 54.9841 87.8828 57.4128 89.6142 59.695C89.7834 59.918 89.9565 60.1396 90.1308 60.361C89.9551 60.6044 89.7823 60.8339 89.6102 61.0475L89.6063 61.0534L89.6015 61.0592C88.5183 62.4209 87.4634 63.3129 86.3778 63.8688C85.3124 64.4143 84.0947 64.6992 82.579 64.6735ZM119.657 67.6452C117.891 67.6451 115.475 66.2234 113.294 63.3366C111.185 60.5454 109.746 56.9442 109.626 53.7057C109.567 51.9679 109.859 50.7673 110.404 49.8473C110.917 48.9831 111.782 48.1478 113.285 47.3483L113.595 47.1891L113.604 47.1842C115.76 46.094 119.181 45.4433 123.217 45.3688C123.889 47.6519 124.342 50.1848 124.526 52.9645L124.527 52.9684C124.905 58.5306 124.339 62.3886 123.289 64.7497C122.301 66.9715 121.033 67.645 119.657 67.6452ZM36.704 68.2819C34.7905 68.3041 32.5893 67.2616 30.7919 65.4606C28.985 63.65 27.9764 61.4648 27.9774 59.7135C27.9785 58.0032 28.584 56.3963 30.6288 54.7077L31.0565 54.3688L31.0722 54.3571C32.7469 53.0648 35.5112 51.8311 38.9667 50.943C39.2925 50.8593 39.6235 50.7803 39.9579 50.7038C40.1439 54.0729 40.2616 57.64 40.2616 61.0827C40.2616 64.3241 39.8426 66.1405 39.2577 67.1081C38.8372 67.8035 38.2257 68.2565 36.704 68.2819Z" fill="white"/>
</svg>
