<svg width="256" height="256" viewBox="0 0 256 256" fill="none" xmlns="http://www.w3.org/2000/svg">
<g clip-path="url(#clip0_875_6058)">
<g filter="url(#filter0_i_875_6058)">
<rect width="256" height="256" rx="64" fill="url(#paint0_linear_875_6058)"/>
</g>
<rect x="7.11111" y="7.11111" width="241.778" height="241.778" rx="56.8889" stroke="black" stroke-width="14.2222"/>
<rect x="2" y="2" width="252" height="252" rx="62" stroke="white" stroke-width="4"/>
<g filter="url(#filter1_d_875_6058)">
<path d="M47 14H209C204.582 14 201 17.5817 201 22V40C201 48.8366 193.837 56 185 56H71C62.1634 56 54.9999 48.8366 54.9999 40V21.9999C54.9999 17.5817 51.4183 14 47 14Z" fill="url(#paint1_linear_875_6058)"/>
</g>
<mask id="mask0_875_6058" style="mask-type:alpha" maskUnits="userSpaceOnUse" x="51" y="14" width="154" height="42">
<path d="M51 14L205 14C202.791 14 201 15.7909 201 18V40C201 48.8366 193.837 56 185 56H71C62.1634 56 54.9999 48.8366 54.9999 40V17.9999C54.9999 15.7908 53.2091 14 51 14Z" fill="black"/>
</mask>
<g mask="url(#mask0_875_6058)">
<g filter="url(#filter2_f_875_6058)">
<ellipse cx="128" cy="55.5" rx="66" ry="5.5" fill="#315BFF"/>
</g>
<g filter="url(#filter3_f_875_6058)">
<ellipse cx="128" cy="55.5" rx="46" ry="6.5" fill="#4F70EE"/>
</g>
<g filter="url(#filter4_f_875_6058)">
<ellipse cx="128" cy="55.5" rx="72" ry="6.5" fill="#4F70EE" fill-opacity="0.7"/>
</g>
</g>
<path d="M128 55L189 56H67L128 55Z" fill="#6379CF"/>
</g>
<defs>
<filter id="filter0_i_875_6058" x="0" y="0" width="256" height="256" filterUnits="userSpaceOnUse" color-interpolation-filters="sRGB">
<feFlood flood-opacity="0" result="BackgroundImageFix"/>
<feBlend mode="normal" in="SourceGraphic" in2="BackgroundImageFix" result="shape"/>
<feColorMatrix in="SourceAlpha" type="matrix" values="0 0 0 0 0 0 0 0 0 0 0 0 0 0 0 0 0 0 127 0" result="hardAlpha"/>
<feOffset/>
<feGaussianBlur stdDeviation="18"/>
<feComposite in2="hardAlpha" operator="arithmetic" k2="-1" k3="1"/>
<feColorMatrix type="matrix" values="0 0 0 0 0.529667 0 0 0 0 0.608149 0 0 0 0 0.915796 0 0 0 1 0"/>
<feBlend mode="normal" in2="shape" result="effect1_innerShadow_875_6058"/>
</filter>
<filter id="filter1_d_875_6058" x="31" y="8" width="194" height="74" filterUnits="userSpaceOnUse" color-interpolation-filters="sRGB">
<feFlood flood-opacity="0" result="BackgroundImageFix"/>
<feColorMatrix in="SourceAlpha" type="matrix" values="0 0 0 0 0 0 0 0 0 0 0 0 0 0 0 0 0 0 127 0" result="hardAlpha"/>
<feOffset dy="10"/>
<feGaussianBlur stdDeviation="8"/>
<feComposite in2="hardAlpha" operator="out"/>
<feColorMatrix type="matrix" values="0 0 0 0 0.247079 0 0 0 0 0.342188 0 0 0 0 0.712056 0 0 0 1 0"/>
<feBlend mode="normal" in2="BackgroundImageFix" result="effect1_dropShadow_875_6058"/>
<feBlend mode="normal" in="SourceGraphic" in2="effect1_dropShadow_875_6058" result="shape"/>
</filter>
<filter id="filter2_f_875_6058" x="18" y="6" width="220" height="99" filterUnits="userSpaceOnUse" color-interpolation-filters="sRGB">
<feFlood flood-opacity="0" result="BackgroundImageFix"/>
<feBlend mode="normal" in="SourceGraphic" in2="BackgroundImageFix" result="shape"/>
<feGaussianBlur stdDeviation="22" result="effect1_foregroundBlur_875_6058"/>
</filter>
<filter id="filter3_f_875_6058" x="50" y="17" width="156" height="77" filterUnits="userSpaceOnUse" color-interpolation-filters="sRGB">
<feFlood flood-opacity="0" result="BackgroundImageFix"/>
<feBlend mode="normal" in="SourceGraphic" in2="BackgroundImageFix" result="shape"/>
<feGaussianBlur stdDeviation="16" result="effect1_foregroundBlur_875_6058"/>
</filter>
<filter id="filter4_f_875_6058" x="24" y="17" width="208" height="77" filterUnits="userSpaceOnUse" color-interpolation-filters="sRGB">
<feFlood flood-opacity="0" result="BackgroundImageFix"/>
<feBlend mode="normal" in="SourceGraphic" in2="BackgroundImageFix" result="shape"/>
<feGaussianBlur stdDeviation="16" result="effect1_foregroundBlur_875_6058"/>
</filter>
<linearGradient id="paint0_linear_875_6058" x1="128" y1="0" x2="128" y2="256" gradientUnits="userSpaceOnUse">
<stop offset="0.25" stop-color="#4E67C9"/>
<stop offset="0.75" stop-color="#5E79E2"/>
</linearGradient>
<linearGradient id="paint1_linear_875_6058" x1="128" y1="14" x2="128" y2="56" gradientUnits="userSpaceOnUse">
<stop/>
<stop offset="1" stop-color="#1F358E"/>
</linearGradient>
<clipPath id="clip0_875_6058">
<rect width="256" height="256" fill="white"/>
</clipPath>
</defs>
</svg>
