<svg preserveAspectRatio="none" width="100%" height="100%" overflow="visible" style="display: block;" viewBox="0 0 128 128" fill="none" xmlns="http://www.w3.org/2000/svg">
<g id="&#229;&#136;&#135;&#229;&#155;&#190;&#230;&#150;&#135;&#228;&#187;&#182;">
<g clip-path="url(#clip0_0_10)">
<rect id="Rectangle 20" x="3" y="3" width="122" height="122" rx="25" fill="url(#paint0_linear_0_10)" stroke="var(--stroke-0, black)" stroke-width="6"/>
<rect id="Rectangle 21" x="1" y="1" width="126" height="126" rx="27" stroke="var(--stroke-0, white)" stroke-width="2"/>
<g id="BG" filter="url(#filter0_d_0_10)">
<path d="M23.5 6H104.5C102.291 6 100.5 7.79086 100.5 10V19C100.5 23.4183 96.9183 27 92.5 27H35.5C31.0817 27 27.5 23.4183 27.5 19V9.99997C27.5 7.79085 25.7091 6 23.5 6Z" fill="var(--fill-0, black)"/>
</g>
<g id="Mask group">
<mask id="mask0_0_10" style="mask-type:alpha" maskUnits="userSpaceOnUse" x="25" y="6" width="78" height="21">
<path id="BG_2" d="M25.5 6L102.5 6C101.395 6 100.5 6.89543 100.5 8V19C100.5 23.4183 96.9183 27 92.5 27H35.5C31.0817 27 27.5 23.4183 27.5 19V7.99997C27.5 6.89542 26.6046 6 25.5 6Z" fill="var(--fill-0, black)"/>
</mask>
<g mask="url(#mask0_0_10)">
<g id="Ellipse 4" filter="url(#filter1_f_0_10)">
<ellipse cx="64" cy="26.75" rx="33" ry="2.75" fill="var(--fill-0, #315BFF)"/>
</g>
<g id="Ellipse 5" filter="url(#filter2_f_0_10)">
<ellipse cx="64" cy="26.75" rx="23" ry="3.25" fill="var(--fill-0, #4F70EE)"/>
</g>
</g>
</g>
<path id="Rectangle 22" d="M64 26.5L94.5 27H33.5L64 26.5Z" fill="var(--fill-0, #6379CF)"/>
</g>
</g>
<defs>
<filter id="filter0_d_0_10" x="15.5" y="3" width="97" height="37" filterUnits="userSpaceOnUse" color-interpolation-filters="sRGB">
<feFlood flood-opacity="0" result="BackgroundImageFix"/>
<feColorMatrix in="SourceAlpha" type="matrix" values="0 0 0 0 0 0 0 0 0 0 0 0 0 0 0 0 0 0 127 0" result="hardAlpha"/>
<feOffset dy="5"/>
<feGaussianBlur stdDeviation="4"/>
<feComposite in2="hardAlpha" operator="out"/>
<feColorMatrix type="matrix" values="0 0 0 0 0.175609 0 0 0 0 0.264871 0 0 0 0 0.612004 0 0 0 1 0"/>
<feBlend mode="normal" in2="BackgroundImageFix" result="effect1_dropShadow_0_10"/>
<feBlend mode="normal" in="SourceGraphic" in2="effect1_dropShadow_0_10" result="shape"/>
</filter>
<filter id="filter1_f_0_10" x="9" y="2" width="110" height="49.5" filterUnits="userSpaceOnUse" color-interpolation-filters="sRGB">
<feFlood flood-opacity="0" result="BackgroundImageFix"/>
<feBlend mode="normal" in="SourceGraphic" in2="BackgroundImageFix" result="shape"/>
<feGaussianBlur stdDeviation="11" result="effect1_foregroundBlur_0_10"/>
</filter>
<filter id="filter2_f_0_10" x="25" y="7.5" width="78" height="38.5" filterUnits="userSpaceOnUse" color-interpolation-filters="sRGB">
<feFlood flood-opacity="0" result="BackgroundImageFix"/>
<feBlend mode="normal" in="SourceGraphic" in2="BackgroundImageFix" result="shape"/>
<feGaussianBlur stdDeviation="8" result="effect1_foregroundBlur_0_10"/>
</filter>
<linearGradient id="paint0_linear_0_10" x1="64" y1="0" x2="64" y2="128" gradientUnits="userSpaceOnUse">
<stop stop-color="#4E6BE0"/>
<stop offset="1"/>
</linearGradient>
<clipPath id="clip0_0_10">
<rect width="128" height="128" rx="28" fill="white"/>
</clipPath>
</defs>
</svg>
