<svg preserveAspectRatio="none" width="100%" height="100%" overflow="visible" style="display: block;" viewBox="0 0 409 409" fill="none" xmlns="http://www.w3.org/2000/svg">
<path id="Union" d="M204.5 0C317.442 0 409 91.5578 409 204.5C409 317.442 317.442 409 204.5 409C91.5578 409 0 317.442 0 204.5C0 91.5578 91.5578 0 204.5 0ZM204.5 1.53613C92.4062 1.53613 1.53613 92.4062 1.53613 204.5C1.53613 316.594 92.4062 407.464 204.5 407.464C316.594 407.464 407.464 316.594 407.464 204.5C407.464 92.4062 316.594 1.53613 204.5 1.53613ZM206.865 21.5205C306.84 22.787 387.494 104.225 387.494 204.5L387.479 206.865C386.212 306.84 304.775 387.494 204.5 387.494L202.135 387.479C102.947 386.222 22.777 306.053 21.5205 206.865L21.5059 204.5C21.506 103.435 103.435 21.506 204.5 21.5059L206.865 21.5205ZM204.5 23.042C104.284 23.0421 23.0421 104.284 23.042 204.5C23.0421 304.716 104.284 385.957 204.5 385.957C304.716 385.957 385.957 304.716 385.957 204.5C385.957 104.284 304.716 23.0421 204.5 23.042ZM204.5 43.3965C293.475 43.3966 365.604 115.525 365.604 204.5L365.591 206.582C364.476 294.598 292.78 365.604 204.5 365.604L202.418 365.591C114.403 364.476 43.3966 292.78 43.3965 204.5C43.3966 115.525 115.525 43.3966 204.5 43.3965ZM204.5 44.9326C116.373 44.9327 44.9327 116.373 44.9326 204.5C44.9327 292.627 116.373 364.067 204.5 364.067C292.627 364.067 364.067 292.627 364.067 204.5C364.067 116.373 292.627 44.9327 204.5 44.9326ZM204.5 66.0547C280.961 66.0548 342.945 128.039 342.945 204.5C342.945 280.961 280.961 342.945 204.5 342.945C128.039 342.945 66.0548 280.961 66.0547 204.5C66.0548 128.039 128.039 66.0548 204.5 66.0547ZM204.5 67.5908C128.887 67.5909 67.5909 128.887 67.5908 204.5C67.5909 280.113 128.887 341.409 204.5 341.409C280.113 341.409 341.409 280.113 341.409 204.5C341.409 128.887 280.113 67.5909 204.5 67.5908Z" fill="url(#paint0_radial_0_120)"/>
<defs>
<radialGradient id="paint0_radial_0_120" cx="0" cy="0" r="1" gradientUnits="userSpaceOnUse" gradientTransform="translate(204.5 204.5) rotate(90) scale(59.9098 259.824)">
<stop stop-color="#8E18FF"/>
<stop offset="0.5" stop-color="#393DFF"/>
<stop offset="1" stop-color="#6366F1" stop-opacity="0"/>
</radialGradient>
</defs>
</svg>

